<svg width="36" height="36" viewBox="0 0 36 36" fill="none" xmlns="http://www.w3.org/2000/svg">
<path d="M26.9954 23.1425H24.1873C23.655 21.6497 22.2407 20.571 20.5667 20.571C18.8927 20.571 17.4784 21.6497 16.9461 23.1425H8.99512V25.7139H16.9461C17.4784 27.2067 18.8927 28.2854 20.5667 28.2854C22.2407 28.2854 23.655 27.2067 24.1873 25.7139H26.9954V23.1425ZM20.5667 25.7139C20.2356 25.6991 19.9231 25.5572 19.694 25.3177C19.465 25.0782 19.3372 24.7596 19.3372 24.4282C19.3372 24.0968 19.465 23.7782 19.694 23.5387C19.9231 23.2992 20.2356 23.1573 20.5667 23.1425C20.8977 23.1573 21.2103 23.2992 21.4394 23.5387C21.6684 23.7782 21.7962 24.0968 21.7962 24.4282C21.7962 24.7596 21.6684 25.0782 21.4394 25.3177C21.2103 25.5572 20.8977 25.6991 20.5667 25.7139ZM26.9954 12.8566H19.0444C18.5121 11.3639 17.0978 10.2852 15.4238 10.2852C13.7498 10.2852 12.3354 11.3639 11.8032 12.8566H8.99512V15.4281H11.8032C12.3354 16.9208 13.7498 17.9995 15.4238 17.9995C17.0978 17.9995 18.5121 16.9208 19.0444 15.4281H26.9954V12.8566ZM15.4238 15.4281C15.0927 15.4133 14.7801 15.2713 14.5511 15.0318C14.3221 14.7923 14.1943 14.4737 14.1943 14.1423C14.1943 13.811 14.3221 13.4924 14.5511 13.2529C14.7801 13.0134 15.0927 12.8714 15.4238 12.8566C15.7548 12.8714 16.0674 13.0134 16.2964 13.2529C16.5255 13.4924 16.6533 13.811 16.6533 14.1423C16.6533 14.4737 16.5255 14.7923 16.2964 15.0318C16.0674 15.2713 15.7548 15.4133 15.4238 15.4281Z" fill="#7E7E81"/>
<path d="M35.9344 21.8441L32.5979 7.46063C32.5086 7.07572 32.3317 6.71659 32.0811 6.41111C31.8305 6.10562 31.5128 5.86201 31.1528 5.69917L19.0579 0.228387C18.725 0.0778582 18.3638 0 17.9985 0C17.6331 0 17.2719 0.0778582 16.939 0.228387L4.84542 5.69789C4.48525 5.86085 4.1675 6.10466 3.91686 6.41038C3.66622 6.7161 3.48944 7.07549 3.40026 7.46063L0.0663614 21.8441C-0.0215702 22.2236 -0.0221241 22.6181 0.0647417 22.9979C0.151607 23.3777 0.323622 23.7327 0.567796 24.0363L9.42134 35.0408C9.66233 35.3403 9.96737 35.5819 10.314 35.7478C10.6607 35.9138 11.0402 36 11.4245 36H24.575C24.9593 36 25.3388 35.9138 25.6854 35.7478C26.0321 35.5819 26.3372 35.3403 26.5781 35.0408L35.4317 24.0363C35.6759 23.7327 35.8479 23.3777 35.9347 22.9979C36.0216 22.6181 36.0223 22.2236 35.9344 21.8441ZM24.5737 33.4285H11.4245L2.57097 22.424L5.90487 8.04049L17.9997 2.57099L30.0946 8.04178L33.4285 22.424L24.5737 33.4285Z" fill="#7E7E81"/>
</svg>
