<svg width="53" height="40" viewBox="0 0 53 40" fill="none" xmlns="http://www.w3.org/2000/svg">
<path d="M44.8447 3.32414C41.4879 1.77454 37.8535 0.649832 34.0677 0C34.0012 0.000939019 33.9377 0.0278897 33.8911 0.0749811C33.4368 0.899768 32.9067 1.97449 32.5534 2.79928C28.5379 2.19981 24.4543 2.19981 20.4388 2.79928C20.0854 1.9495 19.5554 0.899768 19.0759 0.0749811C19.0507 0.0249941 18.9749 0 18.8992 0C15.1134 0.649832 11.5043 1.77454 8.12226 3.32414C8.09702 3.32414 8.07178 3.34913 8.04654 3.37413C1.18159 13.5465 -0.71132 23.4439 0.222515 33.2414C0.222515 33.2914 0.247754 33.3414 0.298232 33.3664C4.84121 36.6655 9.20753 38.665 13.5234 39.9896C13.5991 40.0146 13.6748 39.9896 13.7 39.9397C14.7096 38.565 15.6182 37.1154 16.4006 35.5908C16.4511 35.4908 16.4006 35.3908 16.2996 35.3658C14.861 34.816 13.4981 34.1662 12.1605 33.4164C12.0595 33.3664 12.0595 33.2164 12.1352 33.1414C12.4129 32.9415 12.6905 32.7165 12.9681 32.5166C13.0186 32.4666 13.0943 32.4666 13.1448 32.4916C21.8269 36.4156 31.1905 36.4156 39.7717 32.4916C39.8222 32.4666 39.8979 32.4666 39.9484 32.5166C40.226 32.7415 40.5036 32.9415 40.7812 33.1664C40.8822 33.2414 40.8822 33.3914 40.756 33.4413C39.4436 34.2161 38.0555 34.841 36.6168 35.3908C36.5159 35.4158 36.4907 35.5408 36.5159 35.6158C37.3235 37.1404 38.2321 38.59 39.2164 39.9647C39.2922 39.9897 39.3679 40.0146 39.4436 39.9896C43.7847 38.665 48.151 36.6655 52.694 33.3664C52.7444 33.3414 52.7697 33.2914 52.7697 33.2414C53.8802 21.9193 50.9272 12.0969 44.9456 3.37413C44.9204 3.34913 44.8952 3.32414 44.8447 3.32414ZM17.713 27.2679C15.1134 27.2679 12.9429 24.8936 12.9429 21.9693C12.9429 19.0451 15.0629 16.6707 17.713 16.6707C20.3883 16.6707 22.5084 19.0701 22.4831 21.9693C22.4831 24.8936 20.3631 27.2679 17.713 27.2679ZM35.3044 27.2679C32.7048 27.2679 30.5343 24.8936 30.5343 21.9693C30.5343 19.0451 32.6544 16.6707 35.3044 16.6707C37.9797 16.6707 40.0998 19.0701 40.0746 21.9693C40.0746 24.8936 37.9797 27.2679 35.3044 27.2679Z" fill="#CCCCCC"/>
</svg>
