<svg width="27" height="36" viewBox="0 0 27 36" fill="none" xmlns="http://www.w3.org/2000/svg">
<path d="M19.582 22.0105C20.2267 21.546 21.2237 21.1392 21.2237 21.1392C21.2237 21.1392 18.5269 21.6036 15.7756 21.8953C12.4341 22.0681 8.86011 22.1833 7.04407 21.8953C2.76729 21.312 9.32683 19.746 9.32683 19.746C9.32683 19.746 6.74805 19.5714 3.5264 21.1392C-0.10568 22.8817 12.8427 23.6953 19.5802 22.0105M13.6054 19.6884C12.198 16.668 7.68513 14.0544 13.6054 9.46622C20.9277 3.65941 17.1195 0 17.1195 0C18.7012 5.98141 11.7295 7.78142 9.26872 11.4408C7.5689 13.8798 10.1495 16.6086 13.6054 19.6884ZM21.6886 7.37642C21.6886 7.37642 9.20879 10.512 15.1836 17.2476C16.9415 19.2222 14.715 21.024 14.715 21.024C14.715 21.024 19.168 18.7578 17.1176 15.8544C15.2435 13.1832 13.7198 11.8476 21.6886 7.37642ZM21.2782 26.3089C21.2201 26.3665 21.2201 26.3665 21.2201 26.4817C30.3003 24.1021 27.0205 18.0612 22.6257 19.629C22.5002 19.6605 22.3829 19.7182 22.2817 19.7983C22.1805 19.8784 22.0978 19.9791 22.0391 20.0934C22.2752 20.0358 22.5077 19.9188 22.86 19.8612C24.9121 19.4544 28.0756 22.8241 21.2782 26.3089ZM24.5598 30.7225C24.5598 30.7225 25.555 31.5343 23.3866 32.1733C19.286 33.3937 6.33763 33.7411 2.70373 32.2327C1.35623 31.6513 3.8769 30.8377 4.5797 30.6631C5.39874 30.4903 5.80916 30.6055 5.80916 30.6055C4.40355 29.6191 -3.50712 32.5801 1.82477 33.3937C16.4148 35.8327 28.368 32.4631 24.5598 30.7225ZM8.73843 27.8173C3.2322 29.3869 12.1381 32.5801 19.2279 29.5597C18.536 29.2893 17.8694 28.9592 17.2357 28.5733C14.0122 29.2123 12.6048 29.2123 9.73544 28.9207C7.33282 28.6327 8.73843 27.8173 8.73843 27.8173ZM21.5125 34.6717C16.0044 35.6581 8.9727 35.5411 4.93201 34.9039C4.93201 34.9039 5.75105 35.5429 10.0278 35.8903C16.5329 36.2971 26.6083 35.6581 26.8444 32.5225C26.8444 32.5225 26.4339 33.8005 21.5125 34.6717ZM18.3489 24.7987C14.1303 25.6105 11.6695 25.6105 8.62221 25.2631C6.21959 25.0291 7.80136 23.8699 7.80136 23.8699C1.70854 25.9021 11.1992 28.2259 19.8726 25.6699C19.3459 25.4953 18.8756 25.2055 18.3471 24.7987" fill="#FFD633"/>
</svg>
