<svg width="36" height="36" viewBox="0 0 36 36" fill="none" xmlns="http://www.w3.org/2000/svg">
<path d="M19.5 16.5C19.5 15.3065 19.9741 14.1619 20.818 13.318C21.6619 12.4741 22.8065 12 24 12H28.5C28.8978 12 29.2794 12.158 29.5607 12.4393C29.842 12.7206 30 13.1022 30 13.5C30 13.8978 29.842 14.2794 29.5607 14.5607C29.2794 14.842 28.8978 15 28.5 15H24C23.6022 15 23.2206 15.158 22.9393 15.4393C22.658 15.7206 22.5 16.1022 22.5 16.5V18C22.5 18.3978 22.658 18.7794 22.9393 19.0607C23.2206 19.342 23.6022 19.5 24 19.5H25.5C26.6935 19.5 27.8381 19.9741 28.682 20.818C29.5259 21.6619 30 22.8065 30 24V25.5C30 26.6935 29.5259 27.8381 28.682 28.682C27.8381 29.5259 26.6935 30 25.5 30H21C20.6022 30 20.2206 29.842 19.9393 29.5607C19.658 29.2794 19.5 28.8978 19.5 28.5C19.5 28.1022 19.658 27.7206 19.9393 27.4393C20.2206 27.158 20.6022 27 21 27H25.5C25.8978 27 26.2794 26.842 26.5607 26.5607C26.842 26.2794 27 25.8978 27 25.5V24C27 23.6022 26.842 23.2206 26.5607 22.9393C26.2794 22.658 25.8978 22.5 25.5 22.5H24C22.8065 22.5 21.6619 22.0259 20.818 21.182C19.9741 20.3381 19.5 19.1935 19.5 18V16.5ZM18 13.5C18 13.1022 17.842 12.7206 17.5607 12.4393C17.2794 12.158 16.8978 12 16.5 12C16.1022 12 15.7206 12.158 15.4393 12.4393C15.158 12.7206 15 13.1022 15 13.5V25.5C15 25.8978 14.842 26.2794 14.5607 26.5607C14.2794 26.842 13.8978 27 13.5 27H10.5C10.1022 27 9.72064 27.158 9.43934 27.4393C9.15804 27.7206 9 28.1022 9 28.5C9 28.8978 9.15804 29.2794 9.43934 29.5607C9.72064 29.842 10.1022 30 10.5 30H13.5C14.6935 30 15.8381 29.5259 16.682 28.682C17.5259 27.8381 18 26.6935 18 25.5V13.5ZM0 7.5C0 5.51088 0.790176 3.60322 2.1967 2.1967C3.60322 0.790176 5.51088 0 7.5 0H28.5C30.4891 0 32.3968 0.790176 33.8033 2.1967C35.2098 3.60322 36 5.51088 36 7.5V28.5C36 30.4891 35.2098 32.3968 33.8033 33.8033C32.3968 35.2098 30.4891 36 28.5 36H7.5C5.51088 36 3.60322 35.2098 2.1967 33.8033C0.790176 32.3968 0 30.4891 0 28.5V7.5ZM7.5 3C6.30653 3 5.16193 3.47411 4.31802 4.31802C3.47411 5.16193 3 6.30653 3 7.5V28.5C3 29.6935 3.47411 30.8381 4.31802 31.682C5.16193 32.5259 6.30653 33 7.5 33H28.5C29.6935 33 30.8381 32.5259 31.682 31.682C32.5259 30.8381 33 29.6935 33 28.5V7.5C33 6.30653 32.5259 5.16193 31.682 4.31802C30.8381 3.47411 29.6935 3 28.5 3H7.5Z" fill="#FFD633"/>
</svg>
