<svg width="42" height="38" viewBox="0 0 42 38" fill="none" xmlns="http://www.w3.org/2000/svg">
<path d="M41 37V14.22C41 11.576 41 10.252 40.312 9.228C39.624 8.204 38.406 7.712 35.972 6.728L23.972 1.888C22.504 1.296 21.772 1 21 1C20.228 1 19.496 1.296 18.028 1.888L6.028 6.728C3.594 7.712 2.376 8.204 1.688 9.228C1 10.252 1 11.576 1 14.22V37M29 33V37M13 33V37" stroke="#FFD11A" stroke-width="1.5" stroke-linecap="round" stroke-linejoin="round"/>
<path d="M12 23L12.486 21.06C13.212 18.15 13.576 16.694 14.662 15.848C15.746 15 17.246 15 20.246 15H21.754C24.754 15 26.254 15 27.338 15.848C28.424 16.694 28.788 18.148 29.514 21.06L30 23M14 27.98V28M28 27.98V28M31 23H11C10.4696 23 9.96086 23.2107 9.58579 23.5858C9.21071 23.9609 9 24.4696 9 25V31C9 31.5304 9.21071 32.0391 9.58579 32.4142C9.96086 32.7893 10.4696 33 11 33H31C31.5304 33 32.0391 32.7893 32.4142 32.4142C32.7893 32.0391 33 31.5304 33 31V25C33 24.4696 32.7893 23.9609 32.4142 23.5858C32.0391 23.2107 31.5304 23 31 23Z" stroke="#FFD11A" stroke-width="1.5" stroke-linecap="round" stroke-linejoin="round"/>
</svg>
