<svg width="38" height="38" viewBox="0 0 38 38" fill="none" xmlns="http://www.w3.org/2000/svg">
<path d="M29.8 11.8C26.7922 10.6696 23.0518 10 19 10C14.9482 10 11.2078 10.6696 8.19995 11.8" stroke="#FFD11A" stroke-width="1.5" stroke-linecap="round" stroke-linejoin="round"/>
<path d="M9.946 11.8L8.632 9.2566C7.5898 7.2406 7.0696 6.2326 7.3972 5.3398C7.7248 4.4488 8.7346 4.1284 10.7542 3.4912L17.9002 1.2322C18.3898 1.0774 18.6328 1 18.883 1C19.1332 1 19.378 1.0774 19.8658 1.2322L27.4942 3.6442C29.3122 4.2184 30.223 4.5046 30.5686 5.3128C30.916 6.1192 30.5434 7.0822 29.7982 9.0046L28.7164 11.8M10 11.8V14.905C10 18.1324 11.6578 21.124 14.3704 22.7854L15.2956 23.3524C16.4098 24.0373 17.6921 24.3999 19 24.3999C20.3079 24.3999 21.5902 24.0373 22.7044 23.3524L23.6314 22.7854C24.972 21.9543 26.0774 20.7937 26.8421 19.4142C27.6069 18.0347 28.0055 16.4823 28 14.905V11.8M24.4 22.6L26.2 28M26.2 28L23.7358 30.151C21.4786 32.1238 20.3518 33.1084 19 33.1084C17.6482 33.1084 16.5214 32.1238 14.2642 30.151L11.8 28M26.2 28L29.3212 29.0404C31.1176 29.6398 32.0158 29.9404 32.8132 30.4012C33.5939 30.8543 34.3021 31.4222 34.9138 32.086C35.5384 32.7646 37 35.2 37 37M11.8 28L13.6 22.6M11.8 28L8.6788 29.0404C6.8824 29.6398 5.9842 29.9404 5.1868 30.4012C4.40607 30.8543 3.69795 31.4222 3.0862 32.086C2.4616 32.7646 1 35.2 1 37" stroke="#FFD11A" stroke-width="1.5" stroke-linecap="round" stroke-linejoin="round"/>
</svg>
