<svg width="40" height="36" viewBox="0 0 40 36" fill="none" xmlns="http://www.w3.org/2000/svg">
<path d="M11.8641 0.0026842C11.2016 0.0253905 10.5703 0.188119 10 0.519882C8.86 1.18404 8.17937 2.40261 7.87344 3.84477C7.56781 5.28725 7.6 7.00252 7.90469 8.92214C8.02219 9.6623 8.19406 10.4406 8.39281 11.2363C7.61063 11.4602 6.85656 11.6999 6.16281 11.9673C4.36281 12.6611 2.87531 13.4905 1.79031 14.4792C0.705313 15.4679 0 16.671 0 17.9993C0 19.3276 0.705 20.5317 1.79031 21.52C2.875 22.509 4.3625 23.3384 6.1625 24.0322C6.85625 24.2996 7.61031 24.5387 8.3925 24.7629C8.19375 25.5586 8.02188 26.3369 7.90438 27.0767C7.59969 28.9973 7.56812 30.7119 7.87375 32.1541C8.18 33.5969 8.85969 34.8152 9.99969 35.4793C11.1397 36.1435 12.5247 36.129 13.9156 35.6748C15.3062 35.2207 16.7625 34.3355 18.2578 33.109C18.8341 32.6366 19.4163 32.098 20 31.5259C20.5831 32.098 21.1656 32.6366 21.7419 33.109C23.2369 34.3358 24.6925 35.221 26.0834 35.6752C27.4741 36.1293 28.86 36.1435 30 35.4796C31.14 34.8152 31.8206 33.5969 32.1266 32.1544C32.4322 30.7119 32.3994 28.997 32.0947 27.0771C31.9772 26.3369 31.8059 25.5586 31.6072 24.7629C32.3894 24.539 33.1434 24.2993 33.8372 24.0322C35.6372 23.3387 37.1247 22.509 38.2097 21.5203C39.2947 20.5317 40 19.3276 40 17.9993C40 16.671 39.295 15.4675 38.2097 14.4792C37.1247 13.4908 35.6372 12.6608 33.8372 11.9673C33.1434 11.7002 32.39 11.4602 31.6078 11.2363C31.8066 10.4406 31.9778 9.66199 32.0953 8.92214C32.4 7.00252 32.4316 5.28725 32.1259 3.84477C31.8203 2.40229 31.1403 1.18404 30 0.519882C28.8597 -0.144276 27.475 -0.129769 26.0841 0.324356C24.6934 0.778481 23.2372 1.66403 21.7419 2.89016C21.1656 3.36321 20.5825 3.90185 19.9991 4.47392C19.4156 3.90217 18.8334 3.36289 18.2572 2.89016C16.7625 1.66403 15.3075 0.777851 13.9169 0.323725C13.2212 0.0966629 12.5272 -0.0193913 11.8641 0.0026842ZM11.9441 1.75138C12.3597 1.7394 12.8359 1.81666 13.3816 1.99421C14.4722 2.35057 15.78 3.12006 17.1606 4.25222C17.6925 4.68806 18.2366 5.19264 18.7847 5.73128C17.6397 6.98013 16.5041 8.40021 15.4053 9.96789C13.5106 10.1445 11.7241 10.4271 10.0794 10.8036C9.89188 10.0549 9.73063 9.3277 9.62219 8.64431C9.34094 6.87196 9.33469 5.34402 9.57469 4.21249C9.81438 3.08127 10.2628 2.39378 10.8697 2.04026C11.1731 1.86365 11.5284 1.76273 11.9441 1.75138ZM28.0562 1.75138C28.4719 1.76305 28.8272 1.86334 29.1306 2.04026C29.7375 2.39346 30.1859 3.08096 30.4256 4.21217C30.6653 5.34338 30.66 6.87164 30.3787 8.64431C30.2703 9.32707 30.1094 10.0552 29.9216 10.8033C28.2772 10.4271 26.4903 10.1442 24.595 9.96789C23.4963 8.40053 22.36 6.98013 21.215 5.73097C21.7631 5.19264 22.3078 4.68774 22.8397 4.25191C24.2203 3.11912 25.5281 2.35089 26.6191 1.99453C27.1644 1.81666 27.6406 1.7394 28.0562 1.75138ZM20 6.99369C20.8182 7.89482 21.594 8.83417 22.325 9.80863C21.5613 9.77394 20.7884 9.75061 20 9.75061C19.2119 9.75061 18.4391 9.77363 17.675 9.80863C18.4056 8.83388 19.1815 7.89451 20 6.99369ZM20 11.5059C21.2453 11.5059 22.4594 11.5554 23.6356 11.6447C24.3197 12.6556 24.9659 13.6921 25.5728 14.752C26.179 15.8126 26.7454 16.8958 27.2709 17.9993C26.7454 19.1026 26.1789 20.1856 25.5728 21.246C24.9658 22.3062 24.3195 23.343 23.6353 24.3542C22.4594 24.4434 21.2453 24.4933 20.0003 24.4933C18.7867 24.493 17.5736 24.4467 16.3634 24.3545C15.6796 23.3432 15.0336 22.3063 14.4269 21.246C13.8208 20.1858 13.2543 19.103 12.7287 17.9999C13.2545 16.8964 13.8211 15.8132 14.4275 14.7526C15.0345 13.6925 15.6808 12.6558 16.365 11.6447C17.5746 11.5525 18.7869 11.5062 20 11.5059ZM14.1334 11.8727C13.7143 12.5309 13.31 13.1986 12.9209 13.8753C12.5347 14.5535 12.1638 15.2406 11.8084 15.9359C11.3375 14.8098 10.9191 13.6621 10.5547 12.4965C11.6766 12.2442 12.8709 12.0329 14.1334 11.8727ZM25.8669 11.8727C27.0688 12.0241 28.263 12.2322 29.4456 12.4965C29.0812 13.6623 28.6628 14.8102 28.1919 15.9365C27.8365 15.2409 27.4656 14.5535 27.0794 13.8749C26.6903 13.1983 26.286 12.5309 25.8669 11.8727ZM8.86406 12.9263C9.36344 14.5517 10.0144 16.2547 10.8109 17.9987C10.0141 19.7432 9.36406 21.4468 8.86406 23.0722C8.12813 22.8625 7.42344 22.6389 6.78281 22.3923C5.12063 21.7521 3.80656 20.9927 2.95531 20.2169C2.10437 19.4418 1.73875 18.7063 1.73875 17.999C1.73875 17.2919 2.10437 16.5571 2.95531 15.782C3.80656 15.0062 5.12094 14.2471 6.78281 13.6069C7.42344 13.36 8.12813 13.1364 8.86406 12.9263ZM31.1359 12.9263C31.8722 13.1364 32.5772 13.3603 33.2172 13.6075C34.8797 14.2477 36.1937 15.0065 37.045 15.782C37.8959 16.5578 38.2616 17.2925 38.2616 17.9993C38.2616 18.7066 37.8959 19.4421 37.045 20.2172C36.1937 20.993 34.8794 21.7518 33.2175 22.3923C32.5769 22.6389 31.8716 22.8622 31.1356 23.0722C30.6363 21.4472 29.9856 19.7442 29.1897 17.9999C29.9862 16.2553 30.6363 14.552 31.1359 12.9263ZM20 14.4016C19.0546 14.4018 18.1479 14.7809 17.4793 15.4555C16.8108 16.1302 16.4352 17.0452 16.435 17.9993C16.4352 18.9534 16.8109 19.8685 17.4795 20.5432C18.1481 21.2178 19.0548 21.5969 20.0003 21.597C20.9458 21.5968 21.8524 21.2177 22.521 20.543C23.1895 19.8684 23.5651 18.9534 23.5653 17.9993C23.5651 17.0451 23.1895 16.1301 22.5209 15.4554C21.8523 14.7807 20.9455 14.4017 20 14.4016ZM28.1919 20.0627C28.6626 21.189 29.0808 22.3369 29.445 23.5027C28.3237 23.755 27.1294 23.9666 25.8675 24.1271C26.2863 23.4686 26.6903 22.8006 27.0791 22.1236C27.4653 21.4452 27.8365 20.7581 28.1919 20.0627ZM11.8084 20.0633C12.1638 20.7585 12.5347 21.4454 12.9209 22.1236C13.3102 22.8004 13.7145 23.4683 14.1334 24.1268C12.9314 23.9758 11.7372 23.7675 10.5547 23.5027C10.9191 22.3371 11.3375 21.1894 11.8084 20.0633ZM10.0787 25.1959C11.7231 25.5718 13.51 25.8541 15.4053 26.0304C16.5041 27.5987 17.6403 29.0191 18.7853 30.2689C18.2372 30.8066 17.6931 31.3111 17.1613 31.7479C15.7806 32.8801 14.4716 33.6496 13.3806 34.0059C12.29 34.3617 11.4759 34.3128 10.8691 33.9593C10.2622 33.6054 9.81438 32.9186 9.57469 31.7873C9.33469 30.6558 9.34062 29.1279 9.62219 27.3546C9.73063 26.6718 9.89094 25.9439 10.0787 25.1959ZM29.9209 25.1959C30.1084 25.9439 30.2697 26.6718 30.3781 27.3546C30.6594 29.1279 30.6656 30.6558 30.4256 31.7873C30.1859 32.9189 29.7375 33.606 29.1306 33.9602C28.5238 34.3134 27.71 34.3617 26.6191 34.0053C25.5281 33.6489 24.2203 32.8794 22.8397 31.7473C22.3081 31.3111 21.7634 30.8066 21.2156 30.2682C22.3606 29.0194 23.4963 27.5984 24.595 26.0304C26.4897 25.8541 28.2763 25.5718 29.9209 25.1959ZM17.675 26.1899C18.4496 26.2272 19.2249 26.2468 20.0003 26.2486C20.7759 26.2468 21.5513 26.2272 22.3259 26.1899C21.5951 27.1651 20.8191 28.1049 20.0003 29.0061C19.1818 28.1049 18.4056 27.1651 17.675 26.1899Z" fill="#61DAFB"/>
</svg>
