<svg width="41" height="36" viewBox="0 0 41 36" fill="none" xmlns="http://www.w3.org/2000/svg">
<path fill-rule="evenodd" clip-rule="evenodd" d="M25.6269 25.6827H28.7031C33.0097 25.6827 35.163 25.6827 36.8036 24.8445C38.2472 24.1045 39.4218 22.9299 40.1617 21.4863C41 19.8406 41 17.6924 41 13.3858V12.3604C41 8.05378 41 5.90048 40.1617 4.25986C39.4247 2.81423 38.2492 1.63879 36.8036 0.901728C35.1579 0.0634763 33.0097 0.0634766 28.7031 0.0634766H12.2969C7.99031 0.0634766 5.837 0.0634763 4.19639 0.901728C2.75283 1.64164 1.57817 2.81631 0.838252 4.25986C7.63971e-08 5.9056 0 8.05378 0 12.3604V13.3858C0 17.6924 7.63971e-08 19.8457 0.838252 21.4863C1.57817 22.9299 2.75283 24.1045 4.19639 24.8445C5.84213 25.6827 7.99031 25.6827 12.2969 25.6827H15.3731V33.3731H6.40096C6.06103 33.3731 5.73501 33.5081 5.49464 33.7485C5.25427 33.9889 5.11923 34.3149 5.11923 34.6548C5.11923 34.9948 5.25427 35.3208 5.49464 35.5611C5.73501 35.8015 6.06103 35.9366 6.40096 35.9366H34.599C34.939 35.9366 35.265 35.8015 35.5054 35.5611C35.7457 35.3208 35.8808 34.9948 35.8808 34.6548C35.8808 34.3149 35.7457 33.9889 35.5054 33.7485C35.265 33.5081 34.939 33.3731 34.599 33.3731H25.6269V25.6827ZM28.7031 2.61156H12.2969C10.1 2.61156 8.60554 2.61156 7.45198 2.70897C6.32919 2.79869 5.75241 2.96531 5.35251 3.17039C4.38786 3.66192 3.60357 4.44621 3.11204 5.41086C2.90697 5.81076 2.74034 6.38497 2.65062 7.51033C2.55577 8.66132 2.55321 10.1481 2.55321 12.3527V13.3781C2.55321 15.575 2.55577 17.0695 2.65062 18.223C2.7429 19.3458 2.90953 19.9226 3.11204 20.3225C3.60423 21.2864 4.38865 22.0708 5.35251 22.563C5.75241 22.7681 6.32919 22.9347 7.45198 23.0244C8.60554 23.1192 10.0923 23.1192 12.2969 23.1192H28.7031C30.9 23.1192 32.3945 23.1192 33.548 23.0244C34.6708 22.9321 35.2476 22.7655 35.6475 22.563C36.6114 22.0708 37.3958 21.2864 37.888 20.3225C38.093 19.9226 38.2597 19.3458 38.3494 18.2205C38.4442 17.0669 38.4468 15.5801 38.4468 13.3755V12.3501C38.4468 10.1558 38.4442 8.65876 38.3494 7.5052C38.2571 6.38497 38.0905 5.80819 37.888 5.40829C37.3964 4.44364 36.6121 3.65936 35.6475 3.16783C35.2476 2.96275 34.6708 2.79613 33.548 2.7064C32.3945 2.61156 30.9077 2.61156 28.7031 2.61156ZM23.0635 25.6827H17.9365V33.3731H23.0635V25.6827Z" fill="#FFD11A"/>
</svg>
