<svg width="31" height="38" viewBox="0 0 31 38" fill="none" xmlns="http://www.w3.org/2000/svg">
<path d="M28 14.716C28 19.36 25.714 22.933 22.2364 25.2856C21.4264 25.8328 21.0214 26.1064 20.8216 26.4196C20.6236 26.7292 20.5534 27.1396 20.4184 27.9568L20.3104 28.5922C20.0728 30.0286 19.9522 30.7468 19.4482 31.1734C18.9442 31.6 18.217 31.6 16.7608 31.6H12.0592C10.603 31.6 9.8758 31.6 9.3718 31.1734C8.8678 30.7468 8.749 30.0286 8.5078 28.5922L8.4034 27.9568C8.2666 27.1414 8.2 26.7328 8.002 26.4232C7.804 26.1136 7.3972 25.8364 6.5854 25.282C3.1456 22.9294 1 19.3582 1 14.716C1 7.14341 7.0444 1.00001 14.5 1.00001C15.407 0.999047 16.3117 1.09072 17.2 1.27361" stroke="#FFD11A" stroke-width="1.5" stroke-linecap="round" stroke-linejoin="round"/>
<path d="M18.1004 31.6V33.4C18.1004 35.0974 18.1004 35.9452 17.573 36.4726C17.0456 37 16.1978 37 14.5004 37C12.803 37 11.9552 37 11.4278 36.4726C10.9004 35.9452 10.9004 35.0974 10.9004 33.4V31.6M23.5004 1L23.9648 2.2546C24.5732 3.8998 24.8774 4.7224 25.4768 5.3218C26.078 5.923 26.9006 6.2272 28.5458 6.8356L29.8004 7.3L28.5458 7.7644C26.9006 8.3728 26.078 8.677 25.4786 9.2764C24.8774 9.8776 24.5732 10.7002 23.9648 12.3454L23.5004 13.6L23.036 12.3454C22.4276 10.7002 22.1234 9.8776 21.524 9.2782C20.9228 8.677 20.1002 8.3728 18.455 7.7644L17.2004 7.3L18.455 6.8356C20.1002 6.2272 20.9228 5.923 21.5222 5.3236C22.1234 4.7224 22.4276 3.8998 23.036 2.2546L23.5004 1Z" stroke="#FFD11A" stroke-width="1.5" stroke-linecap="round" stroke-linejoin="round"/>
</svg>
